<?xml version="1.0" encoding="utf-8"?>
<!DOCTYPE svg PUBLIC "-//W3C//DTD SVG 1.1//EN" "http://www.w3.org/Graphics/SVG/1.1/DTD/svg11.dtd">
<svg version="1.1" xmlns="http://www.w3.org/2000/svg" xmlns:xlink="http://www.w3.org/1999/xlink" x="0px" y="0px" width="100%" height="100%" viewBox="0 0 100 100" enable-background="new 0 0 100 100" xml:space="preserve">
  <path fill="#333333" d="M98.398,79.04l-29.03-29.036l29.03-29.031c2.132-2.142,2.132-5.626-0.006-7.763l-11.62-11.6c-2.115-2.147-5.595-2.147-7.731,0L50,30.647L20.969,1.611c-2.131-2.147-5.615-2.147-7.742,0L1.606,13.227c-2.125,2.121-2.125,5.605,0,7.747l29.031,29.031L1.601,79.04c-2.131,2.147-2.131,5.61,0,7.747l11.626,11.6c2.126,2.147,5.611,2.147,7.742,0.011l29.036-29.025l29.036,29.025c2.137,2.137,5.616,2.137,7.736,0l11.621-11.61C100.53,84.65,100.53,81.188,98.398,79.04z" />
</svg>