<?xml version="1.0" encoding="utf-8"?>
<!DOCTYPE svg PUBLIC "-//W3C//DTD SVG 1.1//EN" "http://www.w3.org/Graphics/SVG/1.1/DTD/svg11.dtd">
<svg version="1.1" xmlns="http://www.w3.org/2000/svg" xmlns:xlink="http://www.w3.org/1999/xlink" x="0px" y="0px" width="100%" height="100%" viewBox="0 0 100 100" enable-background="new 0 0 100 100" xml:space="preserve">
  <path fill="#333333" d="M50,41.226c17.281,0,22.355-4.44,22.355-14.664c0-6.701-5.217-10.902-11.688-13.011C59.946,8.28,55.473,4.207,50,4.207c-5.471,0-9.944,4.074-10.669,9.345c-6.468,2.109-11.687,6.31-11.687,13.011C27.644,36.786,32.719,41.226,50,41.226z" />
  <path fill="#333333" d="M96.154,53.485H80.048c0-2.762-0.045-4.956-0.157-6.715c5.371-3.559,12.417-11.366,12.417-27.9c0-2.124-1.72-3.846-3.846-3.846s-3.847,1.722-3.847,3.846c0,19.706-11.857,23.034-12.439,23.184c-0.384,0.092-0.706,0.286-1.029,0.477C66.654,44.25,59.961,46.563,50,46.563c-14.714,0-22.249-5.244-26.095-6.524c-3.653-2.648-8.521-8.534-8.521-21.169c0-2.124-1.722-3.846-3.846-3.846s-3.846,1.722-3.846,3.846c0,16.464,6.99,24.279,12.354,27.858c-0.069,1.814-0.094,4.026-0.094,6.757H3.846C1.722,53.485,0,55.206,0,57.332s1.722,3.846,3.846,3.846h16.895c0.37,1.871,0.862,3.703,1.482,5.48c-8.75,2.93-18.376,10.205-18.376,25.289c0,2.126,1.722,3.846,3.846,3.846s3.846-1.72,3.846-3.846c0-12.095,8.119-16.587,13.907-18.258c4.742,8.207,12.156,14.502,20.708,16.928c0,0,0-17.9,0-29.439c0-11.538,7.692-11.538,7.692,0c0,11.539,0,29.439,0,29.439c8.542-2.422,15.948-8.702,20.692-16.895c5.743,1.687,13.924,6.183,13.924,18.225c0,2.126,1.72,3.846,3.846,3.846s3.847-1.72,3.847-3.846c0-15.084-9.627-22.359-18.375-25.289c0.62-1.777,1.108-3.609,1.48-5.48h16.895c2.125,0,3.846-1.72,3.846-3.846S98.279,53.485,96.154,53.485z" />
</svg>