<?xml version="1.0" encoding="utf-8"?>
<!DOCTYPE svg PUBLIC "-//W3C//DTD SVG 1.1//EN" "http://www.w3.org/Graphics/SVG/1.1/DTD/svg11.dtd">
<svg version="1.1" xmlns="http://www.w3.org/2000/svg" xmlns:xlink="http://www.w3.org/1999/xlink" x="0px" y="0px" width="100%" height="100%" viewBox="0 0 100 100" enable-background="new 0 0 100 100" xml:space="preserve">
  <path fill="#333333" d="M50,0C22.386,0,0,22.386,0,50s22.386,50,50,50s50-22.386,50-50S77.614,0,50,0z M72.558,67.146l-5.416,5.412c-0.99,0.994-2.614,0.994-3.605,0L50,59.028L36.471,72.558c-0.995,0.994-2.614,0.994-3.609-0.008l-5.419-5.404c-0.987-0.998-0.987-2.61,0-3.612l13.533-13.529L27.447,36.475c-0.991-0.998-0.991-2.622,0-3.609l5.415-5.415c0.995-1.002,2.618-1.002,3.609,0L50,40.983l13.533-13.533c0.994-1.002,2.618-1.002,3.604,0l5.416,5.408c0.99,0.995,0.99,2.618,0.004,3.616L59.024,50.004l13.533,13.529C73.544,64.535,73.544,66.147,72.558,67.146z" />
</svg>