<?xml version="1.0" encoding="utf-8"?>
<!DOCTYPE svg PUBLIC "-//W3C//DTD SVG 1.1//EN" "http://www.w3.org/Graphics/SVG/1.1/DTD/svg11.dtd">
<svg version="1.1" xmlns="http://www.w3.org/2000/svg" xmlns:xlink="http://www.w3.org/1999/xlink" x="0px" y="0px" width="100%" height="100%" viewBox="0 0 100 100" enable-background="new 0 0 100 100" xml:space="preserve">
  <path fill="#333333" d="M50,0C22.388,0,0,22.388,0,50s22.388,50,50,50s50-22.388,50-50S77.612,0,50,0z M60.408,77.492c-2.575,1.018-4.621,1.786-6.159,2.319c-1.533,0.533-3.315,0.802-5.34,0.802c-3.117,0-5.539-0.761-7.267-2.281c-1.728-1.521-2.588-3.448-2.588-5.787c0-0.91,0.062-1.84,0.19-2.79c0.132-0.947,0.339-2.014,0.625-3.212l3.22-11.38c0.285-1.092,0.529-2.129,0.723-3.097c0.194-0.976,0.29-1.868,0.29-2.678c0-1.447-0.302-2.463-0.897-3.034c-0.604-0.57-1.745-0.852-3.439-0.852c-0.831,0-1.687,0.124-2.563,0.38c-0.868,0.265-1.62,0.509-2.24,0.744l0.852-3.505c2.108-0.86,4.125-1.595,6.052-2.203c1.926-0.616,3.745-0.922,5.46-0.922c3.096,0,5.481,0.752,7.164,2.245c1.67,1.492,2.513,3.435,2.513,5.824c0,0.496-0.058,1.368-0.173,2.612c-0.116,1.248-0.331,2.39-0.646,3.431L52.98,65.451c-0.261,0.909-0.496,1.951-0.707,3.117c-0.207,1.165-0.31,2.054-0.31,2.649c0,1.509,0.334,2.534,1.013,3.079c0.669,0.546,1.839,0.823,3.501,0.823c0.781,0,1.657-0.141,2.649-0.409c0.983-0.273,1.694-0.513,2.142-0.72L60.408,77.492zM59.842,31.448c-1.492,1.389-3.294,2.083-5.398,2.083c-2.1,0-3.91-0.694-5.419-2.083c-1.496-1.389-2.257-3.075-2.257-5.051c0-1.967,0.761-3.662,2.257-5.063c1.509-1.405,3.319-2.104,5.419-2.104c2.104,0,3.906,0.699,5.398,2.104c1.492,1.401,2.245,3.096,2.245,5.063C62.087,28.373,61.334,30.06,59.842,31.448z" />
</svg>