<?xml version="1.0" encoding="utf-8"?>
<!DOCTYPE svg PUBLIC "-//W3C//DTD SVG 1.1//EN" "http://www.w3.org/Graphics/SVG/1.1/DTD/svg11.dtd">
<svg version="1.1" xmlns="http://www.w3.org/2000/svg" xmlns:xlink="http://www.w3.org/1999/xlink" x="0px" y="0px" width="100%" height="100%" viewBox="0 0 100 100" enable-background="new 0 0 100 100" xml:space="preserve">
  <path fill="#333333" d="M82.949,31.417l-0.441-0.697L52.685,43.462c-0.829-0.341-1.732-0.536-2.685-0.536c-3.906,0-7.073,3.167-7.073,7.073s3.167,7.073,7.073,7.073c3.594,0,6.528-2.69,6.981-6.161L82.949,31.417z" />
  <path fill="#333333" d="M50,0C22.386,0,0,22.386,0,50s22.386,50,50,50s50-22.386,50-50S77.614,0,50,0z M50,89.554c-21.81,0-39.554-17.743-39.554-39.554c0-21.81,17.744-39.554,39.554-39.554c21.811,0,39.554,17.744,39.554,39.554C89.554,71.811,71.811,89.554,50,89.554z" />
  <path fill="#333333" d="M50,23.853c1.725,0,3.121-1.397,3.121-3.121v-3.903c0-1.724-1.396-3.121-3.121-3.121s-3.121,1.397-3.121,3.121v3.903C46.879,22.456,48.275,23.853,50,23.853z" />
  <path fill="#333333" d="M83.171,46.879h-3.902c-1.723,0-3.121,1.396-3.121,3.121s1.398,3.121,3.121,3.121h3.902c1.723,0,3.121-1.396,3.121-3.121S84.894,46.879,83.171,46.879z" />
  <path fill="#333333" d="M23.853,50c0-1.725-1.397-3.121-3.121-3.121h-3.903c-1.724,0-3.121,1.396-3.121,3.121s1.397,3.121,3.121,3.121h3.903C22.456,53.121,23.853,51.725,23.853,50z" />
  <path fill="#333333" d="M36.119,19.712c-0.863-1.492-2.772-2.012-4.265-1.144c-1.494,0.861-2.004,2.771-1.143,4.265l1.951,3.38c0.577,1.002,1.627,1.563,2.708,1.563c0.528,0,1.065-0.135,1.557-0.419c1.494-0.861,2.005-2.771,1.144-4.264L36.119,19.712z" />
  <path fill="#333333" d="M23.093,61.933l-3.38,1.951c-1.494,0.861-2.005,2.771-1.144,4.264c0.578,0.999,1.627,1.56,2.708,1.56c0.528,0,1.065-0.134,1.557-0.42l3.38-1.951c1.494-0.861,2.004-2.771,1.143-4.265C26.498,61.582,24.586,61.06,23.093,61.933z" />
  <path fill="#333333" d="M26.214,32.662l-3.38-1.951c-1.5-0.871-3.405-0.351-4.265,1.143c-0.861,1.494-0.351,3.403,1.144,4.265l3.38,1.951c0.492,0.284,1.029,0.419,1.557,0.419c1.081,0,2.13-0.56,2.708-1.563C28.218,35.433,27.708,33.523,26.214,32.662z" />
  <path fill="#333333" d="M80.29,63.884l-3.381-1.951c-1.49-0.865-3.403-0.351-4.265,1.139c-0.865,1.494-0.351,3.403,1.14,4.265l3.381,1.951c0.491,0.286,1.028,0.42,1.559,0.42c1.078,0,2.13-0.561,2.705-1.56C82.294,66.654,81.779,64.745,80.29,63.884z" />
  <path fill="#333333" d="M63.071,27.357c0.492,0.284,1.029,0.419,1.559,0.419c1.079,0,2.131-0.56,2.706-1.563l1.951-3.38c0.865-1.494,0.351-3.403-1.14-4.265c-1.493-0.861-3.406-0.353-4.264,1.144l-1.951,3.38C61.067,24.586,61.582,26.496,63.071,27.357z" />
</svg>