<?xml version="1.0" encoding="utf-8"?>
<!DOCTYPE svg PUBLIC "-//W3C//DTD SVG 1.1//EN" "http://www.w3.org/Graphics/SVG/1.1/DTD/svg11.dtd">
<svg version="1.1" xmlns="http://www.w3.org/2000/svg" xmlns:xlink="http://www.w3.org/1999/xlink" x="0px" y="0px" width="100%" height="100%" viewBox="0 0 100 100" enable-background="new 0 0 100 100" xml:space="preserve">
  <path fill="#333333" d="M99.111,60.688L62.806,32.3c-0.579-0.586-1.356-0.891-2.141-0.891c-0.396,0-0.793,0.08-1.166,0.229c-1.135,0.472-1.813,1.577-1.813,2.803v17.003c-38.828,0-55.808-10.951-53.226-45.833C-11.986,61.416,19.582,74.03,57.687,74.03v17.327c0,1.227,0.678,2.331,1.813,2.799c1.128,0.473,2.438,0.206,3.307-0.654l36.306-28.525C100.296,63.8,100.296,61.869,99.111,60.688z" />
</svg>