<?xml version="1.0" encoding="utf-8"?>
<!DOCTYPE svg PUBLIC "-//W3C//DTD SVG 1.1//EN" "http://www.w3.org/Graphics/SVG/1.1/DTD/svg11.dtd">
<svg version="1.1" xmlns="http://www.w3.org/2000/svg" xmlns:xlink="http://www.w3.org/1999/xlink" x="0px" y="0px" width="100%" height="100%" viewBox="0 0 100 100" enable-background="new 0 0 100 100" xml:space="preserve">
  <path fill="#333333" d="M56.102,50.29c0.008-0.097,0.03-0.19,0.03-0.29c0-2.136-1.094-4.011-2.748-5.108l-0.861-19.503c-0.045-0.896-0.777-2.507-2.538-2.507c-1.765,0-2.485,1.612-2.538,2.507l-1.004,19.634c-1.553,1.113-2.574,2.921-2.574,4.977c0,3.384,2.748,6.132,6.132,6.132c0.25,0,0.486-0.046,0.728-0.072l11.833,10.483c0.675,0.599,2.401,1.144,3.826-0.277c1.426-1.426,0.869-3.148,0.282-3.826L56.102,50.29z" />
  <path fill="#333333" d="M50,0C22.386,0,0,22.386,0,50s22.386,50,50,50s50-22.386,50-50S77.614,0,50,0z M53.155,90.084c0.747-0.785,1.224-1.837,1.224-3.011v-1.951c0-2.42-1.959-4.379-4.379-4.379s-4.381,1.959-4.381,4.379v1.951c0,1.174,0.475,2.226,1.226,3.011C27.17,88.548,11.454,72.828,9.916,53.155c0.785,0.747,1.839,1.224,3.011,1.224h1.951c2.42,0,4.381-1.959,4.381-4.379s-1.961-4.381-4.381-4.381h-1.951c-1.172,0-2.226,0.475-3.011,1.226c1.538-19.672,17.256-35.391,36.929-36.929c-0.751,0.785-1.226,1.839-1.226,3.011v1.951c0,2.42,1.961,4.381,4.381,4.381s4.379-1.961,4.379-4.381v-1.951c0-1.172-0.477-2.226-1.224-3.011c19.673,1.538,35.393,17.254,36.929,36.929c-0.785-0.751-1.837-1.226-3.011-1.226h-1.951c-2.42,0-4.379,1.961-4.379,4.381s1.959,4.379,4.379,4.379h1.951c1.174,0,2.226-0.477,3.011-1.224C88.548,72.828,72.828,88.548,53.155,90.084z" />
</svg>