<?xml version="1.0" encoding="utf-8"?>
<!DOCTYPE svg PUBLIC "-//W3C//DTD SVG 1.1//EN" "http://www.w3.org/Graphics/SVG/1.1/DTD/svg11.dtd">
<svg version="1.1" xmlns="http://www.w3.org/2000/svg" xmlns:xlink="http://www.w3.org/1999/xlink" x="0px" y="0px" width="100%" height="100%" viewBox="0 0 100 100" enable-background="new 0 0 100 100" xml:space="preserve">
  <path fill="#333333" d="M79.165,27.12l4.023-5.08c0.631-0.8,0.924-1.818,0.804-2.832c-0.117-1.014-0.635-1.938-1.436-2.571l-4.676-3.698c-1.668-1.322-4.083-1.031-5.401,0.631l-4.608,5.83c-3.2-1.5-6.606-2.62-10.179-3.281v-4.581c2.126,0,3.846-1.722,3.846-3.846V3.846c0-2.124-1.72-3.846-3.846-3.846H42.308c-2.124,0-3.846,1.722-3.846,3.846v3.846c0,2.124,1.722,3.846,3.846,3.846v4.581C22.645,19.751,7.692,36.993,7.692,57.692C7.692,81.021,26.671,100,50,100c23.328,0,42.308-18.979,42.308-42.308C92.308,45.671,87.244,34.83,79.165,27.12z M50,88.462c-16.966,0-30.769-13.804-30.769-30.77S33.034,26.923,50,26.923s30.77,13.804,30.77,30.77S66.966,88.462,50,88.462z" />
  <path fill="#333333" d="M50,50c-0.661,0-1.294,0.109-1.906,0.267c-7.029-3.711-18.936-10.002-19.488-10.303c-1.375-0.755-3.08-0.529-3.955,0.783c-0.879,1.313-0.443,2.817,0.781,3.957c0.809,0.751,10.963,9.129,16.986,14.093c0.541,3.718,3.715,6.588,7.582,6.588c4.248,0,7.692-3.444,7.692-7.692C57.692,53.446,54.248,50,50,50z" />
</svg>