<?xml version="1.0" encoding="utf-8"?>
<!DOCTYPE svg PUBLIC "-//W3C//DTD SVG 1.1//EN" "http://www.w3.org/Graphics/SVG/1.1/DTD/svg11.dtd">
<svg version="1.1" xmlns="http://www.w3.org/2000/svg" xmlns:xlink="http://www.w3.org/1999/xlink" x="0px" y="0px" width="100%" height="100%" viewBox="0 0 100 100" enable-background="new 0 0 100 100" xml:space="preserve">
  <path fill="#333333" d="M92.308,65.385h-3.846V41.763C95.083,40.046,100,34.082,100,26.923c0-8.496-6.889-15.384-15.385-15.384c-7.159,0-13.123,4.913-14.84,11.539H57.692v-7.692c0-2.119-1.728-3.846-3.847-3.846H38.461c-2.118,0-3.846,1.728-3.846,3.846v7.692H23.077V7.692c0-2.119-1.728-3.846-3.846-3.846H3.846C1.728,3.846,0,5.574,0,7.692v38.461C0,48.272,1.728,50,3.846,50h15.385c2.118,0,3.846-1.728,3.846-3.846V30.769h11.538v7.692c0,2.119,1.728,3.846,3.846,3.846h15.384c2.119,0,3.847-1.728,3.847-3.846v-7.692h12.083c1.394,5.386,5.607,9.597,10.994,10.994v23.622h-3.847c-2.118,0-3.846,1.728-3.846,3.846v7.692h-15.93c-1.716-6.622-7.681-11.538-14.84-11.538c-8.496,0-15.385,6.889-15.385,15.385s6.889,15.385,15.385,15.385c7.159,0,13.124-4.917,14.84-11.539h15.93v7.692c0,2.118,1.728,3.847,3.846,3.847h15.385c2.118,0,3.847-1.729,3.847-3.847V69.23C96.154,67.112,94.426,65.385,92.308,65.385z" />
</svg>