<?xml version="1.0" encoding="utf-8"?>
<!DOCTYPE svg PUBLIC "-//W3C//DTD SVG 1.1//EN" "http://www.w3.org/Graphics/SVG/1.1/DTD/svg11.dtd">
<svg version="1.1" xmlns="http://www.w3.org/2000/svg" xmlns:xlink="http://www.w3.org/1999/xlink" x="0px" y="0px" width="100%" height="100%" viewBox="0 0 100 100" enable-background="new 0 0 100 100" xml:space="preserve">
  <path fill="#333333" d="M97.953,79.542L58.72,11.591c-4.798-8.308-12.641-8.308-17.438,0L2.048,79.542c-4.798,8.315-0.873,15.099,8.715,15.099h78.475C98.826,94.641,102.748,87.857,97.953,79.542z M44.612,30.871c1.41-1.524,3.201-2.287,5.389-2.287c2.188,0,3.979,0.754,5.389,2.256c1.402,1.505,2.104,3.388,2.104,5.652c0,1.947-2.927,16.269-3.902,26.686h-7.05c-0.858-10.417-4.032-24.739-4.032-26.686C42.508,34.262,43.209,32.387,44.612,30.871zM55.29,80.41c-1.482,1.448-3.247,2.165-5.29,2.165s-3.807-0.717-5.29-2.165c-1.479-1.44-2.214-3.186-2.214-5.236c0-2.034,0.735-3.803,2.214-5.281c1.482-1.479,3.247-2.218,5.29-2.218s3.807,0.739,5.29,2.218c1.479,1.479,2.214,3.247,2.214,5.281C57.504,77.225,56.769,78.97,55.29,80.41z" />
</svg>